<svg width="700" height="256" viewBox="0 0 700 256" fill="none" xmlns="http://www.w3.org/2000/svg">
<g filter="url(#filter0_d_5_25)">
<path d="M253.84 147V118.328H263.12L264.72 119.096C265.957 118.883 267.344 118.712 268.88 118.584C270.459 118.413 272.144 118.328 273.936 118.328H277.392C278.629 118.328 279.824 118.499 280.976 118.84C282.128 119.139 282.981 119.587 283.536 120.184C284.261 119.8 285.051 119.48 285.904 119.224C286.757 118.925 287.845 118.712 289.168 118.584C290.533 118.413 292.261 118.328 294.352 118.328H297.552C299.685 118.328 301.328 118.627 302.48 119.224C303.632 119.821 304.443 120.568 304.912 121.464C305.424 122.36 305.723 123.277 305.808 124.216C305.936 125.112 306 125.88 306 126.52V147H294.288V128.952C294.288 127.245 293.264 126.392 291.216 126.392H287.632C286.949 126.392 286.48 126.477 286.224 126.648C285.968 126.819 285.84 127.203 285.84 127.8V147H273.936V128.952C273.936 127.245 272.912 126.392 270.864 126.392H267.6C266.789 126.392 266.256 126.477 266 126.648C265.787 126.776 265.68 127.16 265.68 127.8V147H253.84ZM335.292 147C332.476 147 330.364 146.595 328.956 145.784C327.548 144.973 326.609 143.864 326.14 142.456C325.713 141.005 325.5 139.341 325.5 137.464V127.8C325.5 126.008 325.735 124.408 326.204 123C326.673 121.549 327.591 120.419 328.956 119.608C330.364 118.755 332.476 118.328 335.292 118.328H353.084C355.9 118.328 357.991 118.755 359.356 119.608C360.764 120.419 361.681 121.549 362.108 123C362.577 124.408 362.812 126.008 362.812 127.8V137.464C362.812 139.341 362.577 141.005 362.108 142.456C361.681 143.864 360.764 144.973 359.356 145.784C357.991 146.595 355.9 147 353.084 147H335.292ZM340.412 138.936H348.028C350.076 138.936 351.079 138.083 351.036 136.376V128.952C351.036 128.099 350.801 127.459 350.332 127.032C349.905 126.605 349.137 126.392 348.028 126.392H340.476C339.367 126.392 338.577 126.605 338.108 127.032C337.639 127.459 337.404 128.099 337.404 128.952V136.376C337.361 138.083 338.364 138.936 340.412 138.936ZM393.764 147C390.521 147 388.302 146.317 387.108 144.952C385.913 143.587 385.316 141.539 385.316 138.808V126.392H380.068V118.328H382.756C383.481 118.328 384.057 118.2 384.484 117.944C384.953 117.645 385.252 117.133 385.38 116.408L386.596 109.56H397.092V118.328H407.78V126.392H397.092V136.312C397.092 137.379 397.348 138.083 397.86 138.424C398.372 138.765 399.14 138.936 400.164 138.936H406.564L407.844 146.36C406.948 146.488 405.582 146.637 403.748 146.808C401.913 146.936 399.908 147 397.732 147H393.764ZM434.892 147C432.076 147 429.964 146.595 428.556 145.784C427.148 144.973 426.209 143.864 425.74 142.456C425.313 141.005 425.1 139.341 425.1 137.464V127.8C425.1 126.008 425.335 124.408 425.804 123C426.273 121.549 427.191 120.419 428.556 119.608C429.964 118.755 432.076 118.328 434.892 118.328H452.684C455.5 118.328 457.591 118.755 458.956 119.608C460.364 120.419 461.281 121.549 461.708 123C462.177 124.408 462.412 126.008 462.412 127.8V137.464C462.412 139.341 462.177 141.005 461.708 142.456C461.281 143.864 460.364 144.973 458.956 145.784C457.591 146.595 455.5 147 452.684 147H434.892ZM440.012 138.936H447.628C449.676 138.936 450.679 138.083 450.636 136.376V128.952C450.636 128.099 450.401 127.459 449.932 127.032C449.505 126.605 448.737 126.392 447.628 126.392H440.076C438.967 126.392 438.177 126.605 437.708 127.032C437.239 127.459 437.004 128.099 437.004 128.952V136.376C436.961 138.083 437.964 138.936 440.012 138.936ZM482.227 147V118.328H491.315L493.747 119.608C495.71 118.328 498.313 117.688 501.555 117.688C503.689 117.688 505.566 117.923 507.187 118.392C508.809 118.819 510.11 119.288 511.091 119.8C512.115 120.312 512.755 120.675 513.011 120.888L509.811 129.208C509.385 128.909 508.574 128.504 507.379 127.992C506.227 127.48 504.862 127.011 503.283 126.584C501.705 126.115 500.041 125.88 498.291 125.88H497.587C496.393 125.88 495.475 126.093 494.835 126.52C494.195 126.904 493.875 127.779 493.875 129.144V147H482.227ZM566.292 147C563.476 147 561.364 146.595 559.956 145.784C558.548 144.973 557.609 143.864 557.14 142.456C556.713 141.005 556.5 139.341 556.5 137.464V127.8C556.5 126.008 556.735 124.408 557.204 123C557.673 121.549 558.591 120.419 559.956 119.608C561.364 118.755 563.476 118.328 566.292 118.328H584.084C586.9 118.328 588.991 118.755 590.356 119.608C591.764 120.419 592.681 121.549 593.108 123C593.577 124.408 593.812 126.008 593.812 127.8V137.464C593.812 139.341 593.577 141.005 593.108 142.456C592.681 143.864 591.764 144.973 590.356 145.784C588.991 146.595 586.9 147 584.084 147H566.292ZM571.412 138.936H579.028C581.076 138.936 582.079 138.083 582.036 136.376V128.952C582.036 128.099 581.801 127.459 581.332 127.032C580.905 126.605 580.137 126.392 579.028 126.392H571.476C570.367 126.392 569.577 126.605 569.108 127.032C568.639 127.459 568.404 128.099 568.404 128.952V136.376C568.361 138.083 569.364 138.936 571.412 138.936ZM620.092 115.576C615.782 115.576 613.628 113.741 613.628 110.072C613.628 108.024 614.161 106.616 615.228 105.848C616.337 105.037 617.958 104.632 620.092 104.632C622.353 104.632 623.996 105.037 625.02 105.848C626.086 106.616 626.62 108.024 626.62 110.072C626.62 113.741 624.444 115.576 620.092 115.576ZM614.204 147V118.328H625.852V147H614.204ZM647.755 147V111.544L647.115 106.424H659.403V147H647.755Z" fill="#1B1616"/>
</g>
<path d="M142.525 48.4879C124.295 30.6334 107.167 19.0001 100.025 19.0001C185.295 98.0983 128.025 183 128.025 183C131.198 184.51 168.525 227.5 142.525 235.937C156.395 233.718 169.619 227.102 180.242 215C172.361 218.971 152.025 206 163.025 183C174.025 160 186.025 110.5 142.525 48.4879Z" fill="url(#paint0_linear_5_25)"/>
<path d="M100.025 19.0001C119.025 88.5001 51.5247 114 53.0247 164.718C52.0989 208.71 100.306 242.691 142.525 235.937C121.608 217.999 115.457 206.941 128.025 183C106.821 165.575 98.5247 148 100.025 125.5C101.525 103 137.525 83.5001 100.025 19.0001Z" fill="url(#paint1_linear_5_25)"/>
<path d="M201.025 169C208.903 128.894 174.065 79.3794 142.525 48.4879C186.025 110.5 174.025 160 163.025 183C152.025 206 172.361 218.971 180.242 215C189.678 204.25 197.062 189.171 201.025 169Z" fill="url(#paint2_linear_5_25)"/>
<path d="M128.025 183C128.025 183 185.295 98.0983 100.025 19.0001C137.525 83.5001 101.525 103 100.025 125.5C98.5247 148 106.821 165.575 128.025 183Z" fill="url(#paint3_linear_5_25)"/>
<path d="M128.025 183C131.198 184.51 168.525 227.5 142.525 235.937C121.608 217.999 115.457 206.941 128.025 183Z" fill="url(#paint4_linear_5_25)"/>
<path d="M53.0247 164.718L53.5245 164.728C53.5247 164.72 53.5247 164.712 53.5244 164.703L53.0247 164.718ZM100.025 19.0001L100.025 18.5001C99.8688 18.5001 99.7218 18.5728 99.6272 18.6967C99.5327 18.8206 99.5013 18.9816 99.5424 19.1319L100.025 19.0001ZM201.025 169L200.534 168.904L201.025 169ZM142.525 48.4879L142.875 48.1307L142.525 48.4879ZM53.5244 164.703C53.153 152.143 57.0507 141.13 62.8458 130.567C68.6525 119.983 76.3225 109.917 83.5028 99.1803C97.8447 77.7341 110.064 53.8274 100.507 18.8682L99.5424 19.1319C108.985 53.6728 96.9546 77.2661 82.6715 98.6244C75.5394 109.289 67.8031 119.452 61.9691 130.086C56.1236 140.741 52.1463 151.934 52.5249 164.733L53.5244 164.703ZM100.025 19.5001C101.697 19.5001 104.025 20.1879 106.901 21.5487C109.764 22.9031 113.12 24.8996 116.833 27.4602C124.258 32.5805 133.075 39.9329 142.175 48.8452L142.875 48.1307C133.744 39.1885 124.883 31.7969 117.401 26.6369C113.66 24.0573 110.256 22.0296 107.329 20.6448C104.415 19.2664 101.924 18.5001 100.025 18.5001L100.025 19.5001ZM142.175 48.8452C157.919 64.2659 174.48 84.3291 186.118 105.529C197.762 126.74 204.44 149.019 200.534 168.904L201.515 169.096C205.487 148.875 198.685 126.343 186.995 105.048C175.298 83.7412 158.67 63.6014 142.875 48.1307L142.175 48.8452ZM142.115 48.7751C185.496 110.617 173.508 159.921 162.574 182.784L163.476 183.216C174.541 160.079 186.553 110.383 142.934 48.2008L142.115 48.7751ZM180.618 215.33C190.123 204.501 197.54 189.337 201.515 169.096L200.534 168.904C196.585 189.006 189.233 203.999 179.866 214.67L180.618 215.33ZM162.574 182.784C156.994 194.45 159.342 203.654 164.169 209.435C166.572 212.312 169.583 214.333 172.512 215.38C175.426 216.423 178.329 216.524 180.467 215.447L180.017 214.554C178.214 215.462 175.62 215.43 172.848 214.439C170.091 213.452 167.228 211.537 164.937 208.794C160.376 203.332 158.055 194.55 163.476 183.216L162.574 182.784ZM99.6846 19.3666C142.192 58.7978 149.146 99.635 145.504 130.604C143.682 146.099 139.205 159.135 135.183 168.297C133.172 172.878 131.276 176.488 129.884 178.951C129.188 180.183 128.618 181.128 128.222 181.763C128.025 182.081 127.871 182.322 127.767 182.482C127.715 182.562 127.675 182.623 127.649 182.662C127.636 182.682 127.626 182.697 127.619 182.707C127.616 182.712 127.614 182.715 127.612 182.718C127.611 182.719 127.611 182.719 127.611 182.72C127.61 182.72 127.61 182.72 128.025 183C128.439 183.28 128.44 183.279 128.44 183.278C128.441 183.278 128.441 183.276 128.442 183.275C128.444 183.272 128.447 183.268 128.451 183.262C128.458 183.251 128.469 183.235 128.483 183.214C128.511 183.172 128.552 183.109 128.606 183.026C128.713 182.861 128.871 182.615 129.072 182.291C129.474 181.645 130.051 180.688 130.754 179.444C132.161 176.955 134.073 173.314 136.099 168.699C140.15 159.471 144.661 146.337 146.498 130.72C150.173 99.4634 143.127 58.3006 100.365 18.6335L99.6846 19.3666ZM52.5248 164.707C52.0578 186.898 63.983 206.531 81.2919 219.754C98.5986 232.976 121.341 239.832 142.604 236.43L142.446 235.443C121.49 238.796 99.0189 232.038 81.8989 218.96C64.7811 205.883 53.0658 186.529 53.5245 164.728L52.5248 164.707ZM142.604 236.43C156.583 234.194 169.914 227.524 180.618 215.33L179.866 214.67C169.324 226.68 156.207 233.241 142.446 235.443L142.604 236.43ZM127.81 183.452C127.932 183.51 128.214 183.716 128.66 184.121C129.09 184.51 129.632 185.044 130.263 185.707C131.526 187.032 133.134 188.858 134.897 191.036C138.423 195.395 142.555 201.148 145.775 207.108C149.003 213.084 151.279 219.201 151.174 224.308C151.122 226.849 150.481 229.12 149.094 231.005C147.707 232.89 145.543 234.432 142.37 235.461L142.679 236.412C146.006 235.333 148.363 233.685 149.899 231.598C151.435 229.512 152.119 227.028 152.174 224.329C152.284 218.955 149.904 212.648 146.655 206.633C143.396 200.603 139.226 194.798 135.674 190.407C133.897 188.212 132.272 186.365 130.987 185.017C130.345 184.344 129.785 183.791 129.332 183.38C128.896 182.985 128.514 182.679 128.239 182.549L127.81 183.452ZM128.342 182.614C117.778 173.933 110.458 165.237 105.961 155.936C101.467 146.64 99.7785 136.709 100.524 125.533L99.5258 125.467C98.7708 136.791 100.481 146.898 105.061 156.371C109.638 165.839 117.067 174.643 127.707 183.386L128.342 182.614ZM100.524 125.533C100.891 120.023 103.373 114.672 106.378 108.661C109.372 102.674 112.865 96.0666 115.13 88.1375C119.676 72.2295 119.26 51.0894 100.457 18.7488L99.5924 19.2514C118.29 51.4107 118.624 72.2707 114.169 87.8627C111.934 95.6836 108.49 102.201 105.484 108.214C102.489 114.203 99.9085 119.727 99.5258 125.467L100.524 125.533ZM127.582 182.768C121.272 194.788 119.601 203.687 122.242 211.873C124.871 220.02 131.743 227.349 142.199 236.316L142.85 235.557C132.39 226.586 125.728 219.418 123.194 211.566C120.673 203.753 122.21 195.153 128.467 183.232L127.582 182.768Z" fill="url(#paint5_linear_5_25)"/>
<defs>
<filter id="filter0_d_5_25" x="253.84" y="104.632" width="415.563" height="52.368" filterUnits="userSpaceOnUse" color-interpolation-filters="sRGB">
<feFlood flood-opacity="0" result="BackgroundImageFix"/>
<feColorMatrix in="SourceAlpha" type="matrix" values="0 0 0 0 0 0 0 0 0 0 0 0 0 0 0 0 0 0 127 0" result="hardAlpha"/>
<feOffset dx="6" dy="6"/>
<feGaussianBlur stdDeviation="2"/>
<feComposite in2="hardAlpha" operator="out"/>
<feColorMatrix type="matrix" values="0 0 0 0 0 0 0 0 0 0 0 0 0 0 0 0 0 0 0.25 0"/>
<feBlend mode="normal" in2="BackgroundImageFix" result="effect1_dropShadow_5_25"/>
<feBlend mode="normal" in="SourceGraphic" in2="effect1_dropShadow_5_25" result="shape"/>
</filter>
<linearGradient id="paint0_linear_5_25" x1="136" y1="119.5" x2="164.5" y2="247" gradientUnits="userSpaceOnUse">
<stop stop-color="white" stop-opacity="0"/>
<stop offset="0.9999" stop-color="white"/>
<stop offset="1" stop-color="white"/>
</linearGradient>
<linearGradient id="paint1_linear_5_25" x1="101" y1="19" x2="98.5" y2="174.5" gradientUnits="userSpaceOnUse">
<stop stop-color="#DA9716" stop-opacity="0.5"/>
<stop offset="1" stop-color="#E29219"/>
</linearGradient>
<linearGradient id="paint2_linear_5_25" x1="212" y1="169" x2="101" y2="19" gradientUnits="userSpaceOnUse">
<stop stop-color="#F6BC25"/>
<stop offset="1" stop-color="#F6BC25" stop-opacity="0.5"/>
</linearGradient>
<linearGradient id="paint3_linear_5_25" x1="160" y1="104" x2="124.5" y2="111.5" gradientUnits="userSpaceOnUse">
<stop stop-color="#EBD512" stop-opacity="0.5"/>
<stop offset="1" stop-color="#D0BF24"/>
</linearGradient>
<linearGradient id="paint4_linear_5_25" x1="128" y1="220.5" x2="156" y2="202.5" gradientUnits="userSpaceOnUse">
<stop offset="0.0171723" stop-color="#E19708"/>
<stop offset="0.978151" stop-color="#E19708" stop-opacity="0.5"/>
</linearGradient>
<linearGradient id="paint5_linear_5_25" x1="127.577" y1="19" x2="127.577" y2="236.795" gradientUnits="userSpaceOnUse">
<stop stop-color="#CA832C" stop-opacity="0"/>
<stop offset="1" stop-color="#CA832C" stop-opacity="0.6"/>
</linearGradient>
</defs>
</svg>
